<?xml version="1.0"?>
<svg xmlns="http://www.w3.org/2000/svg" viewBox="0 0 64 64" width="512" height="512"><g id="Fax"><path d="M61,20H56V3a1,1,0,0,0-1-1H25a1,1,0,0,0-1,1V20H20V17a3,3,0,0,0-3-3H9a2.966,2.966,0,0,0-1,.184V5A1,1,0,0,0,6,5V20H3a1,1,0,0,0-1,1V55a7.008,7.008,0,0,0,7,7H55a7.008,7.008,0,0,0,7-7V21A1,1,0,0,0,61,20ZM26,4H54V22H26ZM9,16h8a1,1,0,0,1,1,1V47a1,1,0,0,1-1,1H9a1,1,0,0,1-1-1V17A1,1,0,0,1,9,16ZM4,22H6V47a3,3,0,0,0,3,3h8a3,3,0,0,0,3-3V22h4v1a1,1,0,0,0,1,1H55a1,1,0,0,0,1-1V22h4V51a5.006,5.006,0,0,1-5,5H9a5.006,5.006,0,0,1-5-5ZM55,60H9a5.008,5.008,0,0,1-4.9-4.009A6.974,6.974,0,0,0,9,58H55a6.974,6.974,0,0,0,4.9-2.009A5.008,5.008,0,0,1,55,60Z"/><path d="M27,34H53a1,1,0,0,0,1-1V27a1,1,0,0,0-1-1H27a1,1,0,0,0-1,1v6A1,1,0,0,0,27,34Zm1-6H52v4H28Z"/><path d="M45,35H41a1,1,0,0,0-1,1v4a1,1,0,0,0,1,1h4a1,1,0,0,0,1-1V36A1,1,0,0,0,45,35Zm-1,4H42V37h2Z"/><path d="M52,35H48a1,1,0,0,0-1,1v4a1,1,0,0,0,1,1h4a1,1,0,0,0,1-1V36A1,1,0,0,0,52,35Zm-1,4H49V37h2Z"/><path d="M38,35H34a1,1,0,0,0-1,1v4a1,1,0,0,0,1,1h4a1,1,0,0,0,1-1V36A1,1,0,0,0,38,35Zm-1,4H35V37h2Z"/><path d="M45,42H41a1,1,0,0,0-1,1v4a1,1,0,0,0,1,1h4a1,1,0,0,0,1-1V43A1,1,0,0,0,45,42Zm-1,4H42V44h2Z"/><path d="M52,42H48a1,1,0,0,0-1,1v4a1,1,0,0,0,1,1h4a1,1,0,0,0,1-1V43A1,1,0,0,0,52,42Zm-1,4H49V44h2Z"/><path d="M38,42H34a1,1,0,0,0-1,1v4a1,1,0,0,0,1,1h4a1,1,0,0,0,1-1V43A1,1,0,0,0,38,42Zm-1,4H35V44h2Z"/><path d="M45,49H41a1,1,0,0,0-1,1v4a1,1,0,0,0,1,1h4a1,1,0,0,0,1-1V50A1,1,0,0,0,45,49Zm-1,4H42V51h2Z"/><path d="M52,49H48a1,1,0,0,0-1,1v4a1,1,0,0,0,1,1h4a1,1,0,0,0,1-1V50A1,1,0,0,0,52,49Zm-1,4H49V51h2Z"/><path d="M38,49H34a1,1,0,0,0-1,1v4a1,1,0,0,0,1,1h4a1,1,0,0,0,1-1V50A1,1,0,0,0,38,49Zm-1,4H35V51h2Z"/><path d="M27,41h4a1,1,0,0,0,1-1V36a1,1,0,0,0-1-1H27a1,1,0,0,0-1,1v4A1,1,0,0,0,27,41Zm1-4h2v2H28Z"/><path d="M27,48h4a1,1,0,0,0,1-1V43a1,1,0,0,0-1-1H27a1,1,0,0,0-1,1v4A1,1,0,0,0,27,48Zm1-4h2v2H28Z"/><path d="M27,55h4a1,1,0,0,0,1-1V50a1,1,0,0,0-1-1H27a1,1,0,0,0-1,1v4A1,1,0,0,0,27,55Zm1-4h2v2H28Z"/><path d="M8,54H18a1,1,0,0,0,0-2H8a1,1,0,0,0,0,2Z"/><path d="M32,10H48a1,1,0,0,0,0-2H32a1,1,0,0,0,0,2Z"/><path d="M32,14H48a1,1,0,0,0,0-2H32a1,1,0,0,0,0,2Z"/><path d="M32,18H48a1,1,0,0,0,0-2H32a1,1,0,0,0,0,2Z"/></g></svg>
